M48
; DRILL file {KiCad 6.0.11-2627ca5db0~126~ubuntu22.04.1} date Sun 12 Mar 2023 05:14:01 PM
; FORMAT={-:-/ absolute / inch / decimal}
; #@! TF.CreationDate,2023-03-12T17:14:01-04:00
; #@! TF.GenerationSoftware,Kicad,Pcbnew,6.0.11-2627ca5db0~126~ubuntu22.04.1
; #@! TF.FileFunction,MixedPlating,1,2
FMAT,2
INCH
; #@! TA.AperFunction,Plated,PTH,ViaDrill
T1C0.0276
; #@! TA.AperFunction,Plated,PTH,ComponentDrill
T2C0.0315
; #@! TA.AperFunction,Plated,PTH,ComponentDrill
T3C0.0394
; #@! TA.AperFunction,Plated,PTH,ComponentDrill
T4C0.0709
; #@! TA.AperFunction,NonPlated,NPTH,ComponentDrill
T5C0.1260
%
G90
G05
T1
X0.3366Y0.8283
X0.3366Y0.7483
X0.5766Y0.1983
X0.5766Y0.1283
X0.6566Y0.1983
X0.6566Y0.1283
X0.7766Y0.3583
X0.8766Y0.8383
X0.8766Y0.7783
X0.8766Y0.7183
X0.8766Y0.6583
X1.0066Y0.3783
X1.1066Y0.4683
X1.1066Y0.2683
X1.2066Y0.3783
X1.2966Y0.2183
X1.4566Y0.8683
X1.6066Y0.4783
X2.0966Y0.5183
X2.1566Y0.5783
X2.2666Y0.5783
X2.2666Y0.3883
X2.3866Y0.5583
X2.4966Y0.5983
X2.6866Y0.8883
X2.7866Y0.7983
T2
X1.5558Y0.8667
X1.5558Y0.6667
X1.5566Y0.2983
X1.5566Y0.0983
X1.6558Y0.8667
X1.6558Y0.6667
X1.6566Y0.2983
X1.6566Y0.0983
T3
X1.8866Y0.7583
X1.985Y0.7583
X2.1866Y0.7983
X2.2866Y0.7983
X2.3866Y0.7983
X2.4866Y0.7983
X2.5866Y0.7983
X2.6866Y0.7983
T4
X0.4087Y0.4783
X0.7039Y0.4783
X2.6724Y0.4783
X2.9677Y0.4783
T5
X0.1466Y0.8383
X0.1466Y0.1483
T0
M30
